<svg xmlns="http://www.w3.org/2000/svg" width="604.29" height="334.61" viewBox="0 0 604.29 334.61">
  <g id="sweden" transform="translate(-737.392 -14.433)" opacity="0.202">
    <path id="Path_8" data-name="Path 8" d="M9.278,5.171C64.7,2.477,92.287,42.272,162,42.194c30.378-.034,62.154-25.913,113.66-35.866,38.166-7.376,245.962-32.079,250.608-32.15l-2.719,13.4s-35.973,36.524-69.671,37.5c-45.288,1.316-40.894-7.061-124.632,2.9S210.66,100.008,118.925,64.917C99.358,57.432,41.519,25.5,1.592,24.195-35.8,22.975-55.789,52.165-59.67,52.972-59.67,52.972-46.138,7.866,9.278,5.171Z" transform="translate(825.432 256.631) rotate(-22)" fill="#fccf00"/>
    <path id="Path_6" data-name="Path 6" d="M9.278,5.171C64.7,2.477,92.287,42.272,162,42.194c30.378-.034,66.117-31.171,98.9-33.667,42.7-3.251,84.257,14.06,153.533,11.929s132.958-35.71,132.958-35.71L543.474,5.332s-31.1,22.677-70.678,29.277S350.5,35.866,328.55,35.861c-104.768-.021-117.89,64.147-209.625,29.056C99.358,57.432,41.519,25.5,1.592,24.195-35.8,22.975-55.789,52.165-59.67,52.972-59.67,52.972-46.138,7.866,9.278,5.171Z" transform="translate(798.432 233.631) rotate(-22)" fill="#0066a9"/>
  </g>
</svg>
